<mxfile host="65bd71144e">
    <diagram id="Dt7nxPciHHHotf-U6eUs" name="Page-1">
        <mxGraphModel dx="1639" dy="607" grid="1" gridSize="10" guides="1" tooltips="1" connect="1" arrows="1" fold="1" page="1" pageScale="1" pageWidth="827" pageHeight="1169" math="0" shadow="0">
            <root>
                <mxCell id="0"/>
                <mxCell id="1" parent="0"/>
                <mxCell id="aPYfzz-ZaNKguBsQWeDp-40" value="" style="rounded=0;whiteSpace=wrap;html=1;" parent="1" vertex="1">
                    <mxGeometry x="90" y="225" width="400" height="425" as="geometry"/>
                </mxCell>
                <mxCell id="aPYfzz-ZaNKguBsQWeDp-37" value="" style="rounded=0;whiteSpace=wrap;html=1;dashed=1;dashPattern=8 8;fillColor=none;" parent="1" vertex="1">
                    <mxGeometry x="110" y="290" width="360" height="340" as="geometry"/>
                </mxCell>
                <mxCell id="aPYfzz-ZaNKguBsQWeDp-94" value="" style="rounded=0;whiteSpace=wrap;html=1;fillColor=#fff2cc;strokeColor=#d6b656;" parent="1" vertex="1">
                    <mxGeometry x="122" y="492" width="336" height="123" as="geometry"/>
                </mxCell>
                <mxCell id="aPYfzz-ZaNKguBsQWeDp-84" value="" style="rounded=0;whiteSpace=wrap;html=1;" parent="1" vertex="1">
                    <mxGeometry x="1032" y="329" width="180" height="122" as="geometry"/>
                </mxCell>
                <mxCell id="aPYfzz-ZaNKguBsQWeDp-70" value="" style="rounded=0;whiteSpace=wrap;html=1;" parent="1" vertex="1">
                    <mxGeometry x="800" y="280" width="180" height="220" as="geometry"/>
                </mxCell>
                <mxCell id="aPYfzz-ZaNKguBsQWeDp-64" style="edgeStyle=orthogonalEdgeStyle;rounded=0;orthogonalLoop=1;jettySize=auto;html=1;exitX=1;exitY=0.25;exitDx=0;exitDy=0;" parent="1" source="aPYfzz-ZaNKguBsQWeDp-63" target="aPYfzz-ZaNKguBsQWeDp-3" edge="1">
                    <mxGeometry relative="1" as="geometry"/>
                </mxCell>
                <mxCell id="aPYfzz-ZaNKguBsQWeDp-65" style="edgeStyle=orthogonalEdgeStyle;rounded=0;orthogonalLoop=1;jettySize=auto;html=1;exitX=1;exitY=0.75;exitDx=0;exitDy=0;" parent="1" source="aPYfzz-ZaNKguBsQWeDp-63" target="aPYfzz-ZaNKguBsQWeDp-62" edge="1">
                    <mxGeometry relative="1" as="geometry"/>
                </mxCell>
                <mxCell id="aPYfzz-ZaNKguBsQWeDp-63" value="" style="rounded=0;whiteSpace=wrap;html=1;fillColor=#fff2cc;strokeColor=#d6b656;" parent="1" vertex="1">
                    <mxGeometry x="124" y="327" width="336" height="133" as="geometry"/>
                </mxCell>
                <mxCell id="aPYfzz-ZaNKguBsQWeDp-77" style="edgeStyle=none;rounded=0;orthogonalLoop=1;jettySize=auto;html=1;" parent="1" source="aPYfzz-ZaNKguBsQWeDp-1" target="aPYfzz-ZaNKguBsQWeDp-75" edge="1">
                    <mxGeometry relative="1" as="geometry"/>
                </mxCell>
                <mxCell id="aPYfzz-ZaNKguBsQWeDp-1" value="" style="sketch=0;outlineConnect=0;fontColor=#232F3E;gradientColor=none;fillColor=#B0084D;strokeColor=none;dashed=0;verticalLabelPosition=bottom;verticalAlign=top;align=center;html=1;fontSize=12;fontStyle=0;aspect=fixed;pointerEvents=1;shape=mxgraph.aws4.eventbridge_default_event_bus_resource;" parent="1" vertex="1">
                    <mxGeometry x="827" y="374" width="41.2" height="28" as="geometry"/>
                </mxCell>
                <mxCell id="aPYfzz-ZaNKguBsQWeDp-68" style="rounded=0;orthogonalLoop=1;jettySize=auto;html=1;" parent="1" source="aPYfzz-ZaNKguBsQWeDp-3" target="aPYfzz-ZaNKguBsQWeDp-1" edge="1">
                    <mxGeometry relative="1" as="geometry">
                        <mxPoint x="810" y="385.5581395348838" as="targetPoint"/>
                    </mxGeometry>
                </mxCell>
                <mxCell id="aPYfzz-ZaNKguBsQWeDp-3" value="" style="sketch=0;outlineConnect=0;fontColor=#232F3E;gradientColor=none;fillColor=#B0084D;strokeColor=none;dashed=0;verticalLabelPosition=bottom;verticalAlign=top;align=center;html=1;fontSize=12;fontStyle=0;aspect=fixed;pointerEvents=1;shape=mxgraph.aws4.event;" parent="1" vertex="1">
                    <mxGeometry x="610" y="337" width="48" height="48" as="geometry"/>
                </mxCell>
                <mxCell id="aPYfzz-ZaNKguBsQWeDp-10" value="" style="sketch=0;points=[[0,0,0],[0.25,0,0],[0.5,0,0],[0.75,0,0],[1,0,0],[0,1,0],[0.25,1,0],[0.5,1,0],[0.75,1,0],[1,1,0],[0,0.25,0],[0,0.5,0],[0,0.75,0],[1,0.25,0],[1,0.5,0],[1,0.75,0]];outlineConnect=0;fontColor=#232F3E;gradientColor=#F78E04;gradientDirection=north;fillColor=#D05C17;strokeColor=#ffffff;dashed=0;verticalLabelPosition=bottom;verticalAlign=top;align=center;html=1;fontSize=12;fontStyle=0;aspect=fixed;shape=mxgraph.aws4.resourceIcon;resIcon=mxgraph.aws4.ecs;" parent="1" vertex="1">
                    <mxGeometry x="90" y="225" width="34" height="34" as="geometry"/>
                </mxCell>
                <mxCell id="aPYfzz-ZaNKguBsQWeDp-12" value="svc_application_a&lt;br&gt;(FARGATE_SPOT)" style="text;html=1;strokeColor=none;fillColor=none;align=center;verticalAlign=middle;whiteSpace=wrap;rounded=0;" parent="1" vertex="1">
                    <mxGeometry x="169.5" y="410" width="60" height="30" as="geometry"/>
                </mxCell>
                <mxCell id="aPYfzz-ZaNKguBsQWeDp-13" value="svc_application_a_fallback&lt;br style=&quot;border-color: var(--border-color);&quot;&gt;(FARGATE)" style="text;html=1;strokeColor=none;fillColor=none;align=center;verticalAlign=middle;whiteSpace=wrap;rounded=0;" parent="1" vertex="1">
                    <mxGeometry x="169.5" y="568" width="60" height="30" as="geometry"/>
                </mxCell>
                <mxCell id="aPYfzz-ZaNKguBsQWeDp-18" value="" style="sketch=0;outlineConnect=0;fontColor=#232F3E;gradientColor=none;fillColor=#D45B07;strokeColor=none;dashed=0;verticalLabelPosition=bottom;verticalAlign=top;align=center;html=1;fontSize=12;fontStyle=0;aspect=fixed;pointerEvents=1;shape=mxgraph.aws4.ecs_service;dashPattern=8 8;" parent="1" vertex="1">
                    <mxGeometry x="180" y="350" width="39" height="48" as="geometry"/>
                </mxCell>
                <mxCell id="aPYfzz-ZaNKguBsQWeDp-19" value="" style="sketch=0;outlineConnect=0;fontColor=#232F3E;gradientColor=none;fillColor=#D45B07;strokeColor=none;dashed=0;verticalLabelPosition=bottom;verticalAlign=top;align=center;html=1;fontSize=12;fontStyle=0;aspect=fixed;pointerEvents=1;shape=mxgraph.aws4.ecs_service;dashPattern=8 8;" parent="1" vertex="1">
                    <mxGeometry x="180" y="516" width="39" height="48" as="geometry"/>
                </mxCell>
                <mxCell id="aPYfzz-ZaNKguBsQWeDp-29" value="" style="sketch=0;outlineConnect=0;fontColor=#232F3E;gradientColor=none;fillColor=#D45B07;strokeColor=none;dashed=0;verticalLabelPosition=bottom;verticalAlign=top;align=center;html=1;fontSize=12;fontStyle=0;aspect=fixed;pointerEvents=1;shape=mxgraph.aws4.ecs_task;dashPattern=8 8;" parent="1" vertex="1">
                    <mxGeometry x="290.5" y="352" width="37" height="48" as="geometry"/>
                </mxCell>
                <mxCell id="aPYfzz-ZaNKguBsQWeDp-30" value="" style="sketch=0;outlineConnect=0;fontColor=#232F3E;gradientColor=none;fillColor=#D45B07;strokeColor=none;dashed=0;verticalLabelPosition=bottom;verticalAlign=top;align=center;html=1;fontSize=12;fontStyle=0;aspect=fixed;pointerEvents=1;shape=mxgraph.aws4.ecs_task;dashPattern=8 8;" parent="1" vertex="1">
                    <mxGeometry x="400" y="352" width="37" height="48" as="geometry"/>
                </mxCell>
                <mxCell id="aPYfzz-ZaNKguBsQWeDp-31" value="" style="sketch=0;outlineConnect=0;fontColor=#232F3E;gradientColor=none;fillColor=#D45B07;strokeColor=none;dashed=0;verticalLabelPosition=bottom;verticalAlign=top;align=center;html=1;fontSize=12;fontStyle=0;aspect=fixed;pointerEvents=1;shape=mxgraph.aws4.ecs_task;dashPattern=8 8;" parent="1" vertex="1">
                    <mxGeometry x="348" y="352" width="37" height="48" as="geometry"/>
                </mxCell>
                <mxCell id="aPYfzz-ZaNKguBsQWeDp-32" value="Tasks" style="text;html=1;strokeColor=none;fillColor=none;align=center;verticalAlign=middle;whiteSpace=wrap;rounded=0;" parent="1" vertex="1">
                    <mxGeometry x="336.5" y="400" width="60" height="30" as="geometry"/>
                </mxCell>
                <mxCell id="aPYfzz-ZaNKguBsQWeDp-33" value="" style="sketch=0;outlineConnect=0;fontColor=#232F3E;gradientColor=none;fillColor=#D45B07;strokeColor=none;dashed=0;verticalLabelPosition=bottom;verticalAlign=top;align=center;html=1;fontSize=12;fontStyle=0;aspect=fixed;pointerEvents=1;shape=mxgraph.aws4.ecs_task;dashPattern=8 8;" parent="1" vertex="1">
                    <mxGeometry x="293.25" y="516" width="37" height="48" as="geometry"/>
                </mxCell>
                <mxCell id="aPYfzz-ZaNKguBsQWeDp-34" value="" style="sketch=0;outlineConnect=0;fontColor=#232F3E;gradientColor=none;fillColor=#D45B07;strokeColor=none;dashed=0;verticalLabelPosition=bottom;verticalAlign=top;align=center;html=1;fontSize=12;fontStyle=0;aspect=fixed;pointerEvents=1;shape=mxgraph.aws4.ecs_task;dashPattern=8 8;" parent="1" vertex="1">
                    <mxGeometry x="402.75" y="516" width="37" height="48" as="geometry"/>
                </mxCell>
                <mxCell id="aPYfzz-ZaNKguBsQWeDp-35" value="" style="sketch=0;outlineConnect=0;fontColor=#232F3E;gradientColor=none;fillColor=#D45B07;strokeColor=none;dashed=0;verticalLabelPosition=bottom;verticalAlign=top;align=center;html=1;fontSize=12;fontStyle=0;aspect=fixed;pointerEvents=1;shape=mxgraph.aws4.ecs_task;dashPattern=8 8;" parent="1" vertex="1">
                    <mxGeometry x="350.75" y="516" width="37" height="48" as="geometry"/>
                </mxCell>
                <mxCell id="aPYfzz-ZaNKguBsQWeDp-36" value="Tasks" style="text;html=1;strokeColor=none;fillColor=none;align=center;verticalAlign=middle;whiteSpace=wrap;rounded=0;" parent="1" vertex="1">
                    <mxGeometry x="339.25" y="564" width="60" height="30" as="geometry"/>
                </mxCell>
                <mxCell id="aPYfzz-ZaNKguBsQWeDp-39" value="ECS Cluster" style="text;html=1;strokeColor=none;fillColor=none;align=center;verticalAlign=middle;whiteSpace=wrap;rounded=0;fontStyle=1" parent="1" vertex="1">
                    <mxGeometry x="380" y="260" width="107.75" height="30" as="geometry"/>
                </mxCell>
                <mxCell id="aPYfzz-ZaNKguBsQWeDp-42" value="AWS Elastic Container Service" style="text;html=1;strokeColor=none;fillColor=none;align=center;verticalAlign=middle;whiteSpace=wrap;rounded=0;fontStyle=1" parent="1" vertex="1">
                    <mxGeometry x="90" y="227" width="400" height="30" as="geometry"/>
                </mxCell>
                <mxCell id="aPYfzz-ZaNKguBsQWeDp-59" style="edgeStyle=orthogonalEdgeStyle;rounded=0;orthogonalLoop=1;jettySize=auto;html=1;entryX=0;entryY=0.5;entryDx=0;entryDy=0;entryPerimeter=0;" parent="1" source="aPYfzz-ZaNKguBsQWeDp-44" target="aPYfzz-ZaNKguBsQWeDp-56" edge="1">
                    <mxGeometry relative="1" as="geometry"/>
                </mxCell>
                <mxCell id="aPYfzz-ZaNKguBsQWeDp-44" value="" style="sketch=0;outlineConnect=0;fontColor=#232F3E;gradientColor=none;fillColor=#4D27AA;strokeColor=none;dashed=0;verticalLabelPosition=bottom;verticalAlign=top;align=center;html=1;fontSize=12;fontStyle=0;aspect=fixed;pointerEvents=1;shape=mxgraph.aws4.application_load_balancer;" parent="1" vertex="1">
                    <mxGeometry x="-60" y="426" width="34" height="34" as="geometry"/>
                </mxCell>
                <mxCell id="aPYfzz-ZaNKguBsQWeDp-57" style="edgeStyle=orthogonalEdgeStyle;rounded=0;orthogonalLoop=1;jettySize=auto;html=1;entryX=0;entryY=0.45;entryDx=0;entryDy=0;entryPerimeter=0;" parent="1" source="aPYfzz-ZaNKguBsQWeDp-56" target="aPYfzz-ZaNKguBsQWeDp-37" edge="1">
                    <mxGeometry relative="1" as="geometry"/>
                </mxCell>
                <mxCell id="aPYfzz-ZaNKguBsQWeDp-56" value="" style="shape=providedRequiredInterface;html=1;verticalLabelPosition=bottom;sketch=0;fillColor=none;" parent="1" vertex="1">
                    <mxGeometry x="19" y="433.5" width="20" height="20" as="geometry"/>
                </mxCell>
                <mxCell id="aPYfzz-ZaNKguBsQWeDp-61" style="edgeStyle=orthogonalEdgeStyle;rounded=0;orthogonalLoop=1;jettySize=auto;html=1;" parent="1" source="aPYfzz-ZaNKguBsQWeDp-60" target="aPYfzz-ZaNKguBsQWeDp-44" edge="1">
                    <mxGeometry relative="1" as="geometry"/>
                </mxCell>
                <mxCell id="aPYfzz-ZaNKguBsQWeDp-60" value="" style="sketch=0;outlineConnect=0;fontColor=#232F3E;gradientColor=none;fillColor=#232F3D;strokeColor=none;dashed=0;verticalLabelPosition=bottom;verticalAlign=top;align=center;html=1;fontSize=12;fontStyle=0;aspect=fixed;pointerEvents=1;shape=mxgraph.aws4.client;" parent="1" vertex="1">
                    <mxGeometry x="-220" y="405" width="78" height="76" as="geometry"/>
                </mxCell>
                <mxCell id="aPYfzz-ZaNKguBsQWeDp-69" style="rounded=0;orthogonalLoop=1;jettySize=auto;html=1;" parent="1" source="aPYfzz-ZaNKguBsQWeDp-62" target="aPYfzz-ZaNKguBsQWeDp-1" edge="1">
                    <mxGeometry relative="1" as="geometry">
                        <mxPoint x="810" y="391" as="targetPoint"/>
                    </mxGeometry>
                </mxCell>
                <mxCell id="aPYfzz-ZaNKguBsQWeDp-62" value="" style="sketch=0;outlineConnect=0;fontColor=#232F3E;gradientColor=none;fillColor=#B0084D;strokeColor=none;dashed=0;verticalLabelPosition=bottom;verticalAlign=top;align=center;html=1;fontSize=12;fontStyle=0;aspect=fixed;pointerEvents=1;shape=mxgraph.aws4.event;" parent="1" vertex="1">
                    <mxGeometry x="610" y="402" width="48" height="48" as="geometry"/>
                </mxCell>
                <mxCell id="aPYfzz-ZaNKguBsQWeDp-66" value="SERVICE_STEADY_STATE" style="text;html=1;strokeColor=none;fillColor=none;align=center;verticalAlign=middle;whiteSpace=wrap;rounded=0;fontStyle=1" parent="1" vertex="1">
                    <mxGeometry x="580.13" y="302" width="107.75" height="30" as="geometry"/>
                </mxCell>
                <mxCell id="aPYfzz-ZaNKguBsQWeDp-67" value="SERVICE_TASK_PLACEMENT_FAILURE" style="text;html=1;strokeColor=none;fillColor=none;align=center;verticalAlign=middle;whiteSpace=wrap;rounded=0;fontStyle=1" parent="1" vertex="1">
                    <mxGeometry x="590" y="450" width="107.75" height="30" as="geometry"/>
                </mxCell>
                <mxCell id="aPYfzz-ZaNKguBsQWeDp-71" value="" style="sketch=0;points=[[0,0,0],[0.25,0,0],[0.5,0,0],[0.75,0,0],[1,0,0],[0,1,0],[0.25,1,0],[0.5,1,0],[0.75,1,0],[1,1,0],[0,0.25,0],[0,0.5,0],[0,0.75,0],[1,0.25,0],[1,0.5,0],[1,0.75,0]];outlineConnect=0;fontColor=#232F3E;gradientColor=#FF4F8B;gradientDirection=north;fillColor=#BC1356;strokeColor=#ffffff;dashed=0;verticalLabelPosition=bottom;verticalAlign=top;align=center;html=1;fontSize=12;fontStyle=0;aspect=fixed;shape=mxgraph.aws4.resourceIcon;resIcon=mxgraph.aws4.eventbridge;" parent="1" vertex="1">
                    <mxGeometry x="800" y="280" width="35" height="35" as="geometry"/>
                </mxCell>
                <mxCell id="aPYfzz-ZaNKguBsQWeDp-72" value="AWS EventBridge" style="text;html=1;strokeColor=none;fillColor=none;align=center;verticalAlign=middle;whiteSpace=wrap;rounded=0;fontStyle=1" parent="1" vertex="1">
                    <mxGeometry x="827" y="280" width="150" height="30" as="geometry"/>
                </mxCell>
                <mxCell id="aPYfzz-ZaNKguBsQWeDp-74" value="Event Bus&lt;br&gt;Default" style="text;html=1;strokeColor=none;fillColor=none;align=center;verticalAlign=middle;whiteSpace=wrap;rounded=0;" parent="1" vertex="1">
                    <mxGeometry x="811.22" y="408" width="87.48" height="30" as="geometry"/>
                </mxCell>
                <mxCell id="aPYfzz-ZaNKguBsQWeDp-85" style="edgeStyle=none;rounded=0;orthogonalLoop=1;jettySize=auto;html=1;entryX=0;entryY=0.5;entryDx=0;entryDy=0;" parent="1" source="aPYfzz-ZaNKguBsQWeDp-75" target="aPYfzz-ZaNKguBsQWeDp-84" edge="1">
                    <mxGeometry relative="1" as="geometry"/>
                </mxCell>
                <mxCell id="aPYfzz-ZaNKguBsQWeDp-99" style="edgeStyle=none;rounded=0;orthogonalLoop=1;jettySize=auto;html=1;entryX=0;entryY=0.25;entryDx=0;entryDy=0;" parent="1" source="aPYfzz-ZaNKguBsQWeDp-75" edge="1">
                    <mxGeometry relative="1" as="geometry">
                        <mxPoint x="1057.88" y="492.75" as="targetPoint"/>
                    </mxGeometry>
                </mxCell>
                <mxCell id="aPYfzz-ZaNKguBsQWeDp-75" value="" style="sketch=0;outlineConnect=0;fontColor=#232F3E;gradientColor=none;fillColor=#B0084D;strokeColor=none;dashed=0;verticalLabelPosition=bottom;verticalAlign=top;align=center;html=1;fontSize=12;fontStyle=0;aspect=fixed;pointerEvents=1;shape=mxgraph.aws4.rule_3;" parent="1" vertex="1">
                    <mxGeometry x="910" y="370.5" width="40.15" height="35" as="geometry"/>
                </mxCell>
                <mxCell id="aPYfzz-ZaNKguBsQWeDp-76" value="Rule" style="text;html=1;strokeColor=none;fillColor=none;align=center;verticalAlign=middle;whiteSpace=wrap;rounded=0;" parent="1" vertex="1">
                    <mxGeometry x="886.34" y="405.5" width="87.48" height="30" as="geometry"/>
                </mxCell>
                <mxCell id="aPYfzz-ZaNKguBsQWeDp-78" value="" style="sketch=0;points=[[0,0,0],[0.25,0,0],[0.5,0,0],[0.75,0,0],[1,0,0],[0,1,0],[0.25,1,0],[0.5,1,0],[0.75,1,0],[1,1,0],[0,0.25,0],[0,0.5,0],[0,0.75,0],[1,0.25,0],[1,0.5,0],[1,0.75,0]];points=[[0,0,0],[0.25,0,0],[0.5,0,0],[0.75,0,0],[1,0,0],[0,1,0],[0.25,1,0],[0.5,1,0],[0.75,1,0],[1,1,0],[0,0.25,0],[0,0.5,0],[0,0.75,0],[1,0.25,0],[1,0.5,0],[1,0.75,0]];outlineConnect=0;fontColor=#232F3E;gradientColor=#F34482;gradientDirection=north;fillColor=#BC1356;strokeColor=#ffffff;dashed=0;verticalLabelPosition=bottom;verticalAlign=top;align=center;html=1;fontSize=12;fontStyle=0;aspect=fixed;shape=mxgraph.aws4.resourceIcon;resIcon=mxgraph.aws4.cloudwatch_2;" parent="1" vertex="1">
                    <mxGeometry x="1032" y="329" width="37" height="37" as="geometry"/>
                </mxCell>
                <mxCell id="aPYfzz-ZaNKguBsQWeDp-79" value="" style="sketch=0;outlineConnect=0;fontColor=#232F3E;gradientColor=none;fillColor=#B0084D;strokeColor=none;dashed=0;verticalLabelPosition=bottom;verticalAlign=top;align=center;html=1;fontSize=12;fontStyle=0;aspect=fixed;pointerEvents=1;shape=mxgraph.aws4.logs;" parent="1" vertex="1">
                    <mxGeometry x="1050" y="378" width="44.38" height="33" as="geometry"/>
                </mxCell>
                <mxCell id="aPYfzz-ZaNKguBsQWeDp-80" value="" style="sketch=0;outlineConnect=0;fontColor=#232F3E;gradientColor=none;fillColor=#B0084D;strokeColor=none;dashed=0;verticalLabelPosition=bottom;verticalAlign=top;align=center;html=1;fontSize=12;fontStyle=0;aspect=fixed;pointerEvents=1;shape=mxgraph.aws4.alarm;" parent="1" vertex="1">
                    <mxGeometry x="1147.26" y="369" width="42" height="42" as="geometry"/>
                </mxCell>
                <mxCell id="aPYfzz-ZaNKguBsQWeDp-81" value="Log" style="text;html=1;strokeColor=none;fillColor=none;align=center;verticalAlign=middle;whiteSpace=wrap;rounded=0;" parent="1" vertex="1">
                    <mxGeometry x="1020" y="411" width="87.48" height="30" as="geometry"/>
                </mxCell>
                <mxCell id="aPYfzz-ZaNKguBsQWeDp-82" value="Alarm" style="text;html=1;strokeColor=none;fillColor=none;align=center;verticalAlign=middle;whiteSpace=wrap;rounded=0;" parent="1" vertex="1">
                    <mxGeometry x="1124.52" y="410" width="87.48" height="30" as="geometry"/>
                </mxCell>
                <mxCell id="aPYfzz-ZaNKguBsQWeDp-83" value="AWS CloudWatch" style="text;html=1;strokeColor=none;fillColor=none;align=center;verticalAlign=middle;whiteSpace=wrap;rounded=0;fontStyle=1" parent="1" vertex="1">
                    <mxGeometry x="1074.74" y="329" width="150" height="30" as="geometry"/>
                </mxCell>
                <mxCell id="aPYfzz-ZaNKguBsQWeDp-86" value="" style="sketch=0;points=[[0,0,0],[0.25,0,0],[0.5,0,0],[0.75,0,0],[1,0,0],[0,1,0],[0.25,1,0],[0.5,1,0],[0.75,1,0],[1,1,0],[0,0.25,0],[0,0.5,0],[0,0.75,0],[1,0.25,0],[1,0.5,0],[1,0.75,0]];outlineConnect=0;fontColor=#232F3E;gradientColor=#F78E04;gradientDirection=north;fillColor=#D05C17;strokeColor=#ffffff;dashed=0;verticalLabelPosition=bottom;verticalAlign=top;align=center;html=1;fontSize=12;fontStyle=0;aspect=fixed;shape=mxgraph.aws4.resourceIcon;resIcon=mxgraph.aws4.lambda;" parent="1" vertex="1">
                    <mxGeometry x="1054.38" y="540" width="40" height="40" as="geometry"/>
                </mxCell>
                <mxCell id="aPYfzz-ZaNKguBsQWeDp-88" value="SCALE IN/ OUT" style="text;html=1;strokeColor=none;fillColor=none;align=center;verticalAlign=middle;whiteSpace=wrap;rounded=0;fontStyle=1" parent="1" vertex="1">
                    <mxGeometry x="1019.9999999999999" y="585" width="107.75" height="30" as="geometry"/>
                </mxCell>
                <mxCell id="aPYfzz-ZaNKguBsQWeDp-89" value="" style="endArrow=classic;html=1;rounded=0;entryX=1.005;entryY=0.902;entryDx=0;entryDy=0;entryPerimeter=0;" parent="1" target="aPYfzz-ZaNKguBsQWeDp-63" edge="1">
                    <mxGeometry width="50" height="50" relative="1" as="geometry">
                        <mxPoint x="1032" y="544.17" as="sourcePoint"/>
                        <mxPoint x="502" y="544.17" as="targetPoint"/>
                        <Array as="points">
                            <mxPoint x="550" y="540"/>
                        </Array>
                    </mxGeometry>
                </mxCell>
                <mxCell id="aPYfzz-ZaNKguBsQWeDp-91" value="Reads the ecs primary service state" style="text;html=1;strokeColor=none;fillColor=none;align=center;verticalAlign=middle;whiteSpace=wrap;rounded=0;fontStyle=0" parent="1" vertex="1">
                    <mxGeometry x="671.35" y="510" width="221" height="30" as="geometry"/>
                </mxCell>
                <mxCell id="aPYfzz-ZaNKguBsQWeDp-92" value="" style="endArrow=classic;html=1;rounded=0;" parent="1" edge="1">
                    <mxGeometry width="50" height="50" relative="1" as="geometry">
                        <mxPoint x="1032" y="570.0000000000001" as="sourcePoint"/>
                        <mxPoint x="500" y="570" as="targetPoint"/>
                    </mxGeometry>
                </mxCell>
                <mxCell id="aPYfzz-ZaNKguBsQWeDp-93" value="Applies the desired count to secondary service (fallback)" style="text;html=1;strokeColor=none;fillColor=none;align=center;verticalAlign=middle;whiteSpace=wrap;rounded=0;fontStyle=0" parent="1" vertex="1">
                    <mxGeometry x="635.7" y="570" width="292.3" height="30" as="geometry"/>
                </mxCell>
                <mxCell id="aPYfzz-ZaNKguBsQWeDp-95" value="Primary" style="text;html=1;strokeColor=none;fillColor=none;align=center;verticalAlign=middle;whiteSpace=wrap;rounded=0;" parent="1" vertex="1">
                    <mxGeometry x="410" y="302" width="60" height="30" as="geometry"/>
                </mxCell>
                <mxCell id="aPYfzz-ZaNKguBsQWeDp-96" value="Secondary" style="text;html=1;strokeColor=none;fillColor=none;align=center;verticalAlign=middle;whiteSpace=wrap;rounded=0;" parent="1" vertex="1">
                    <mxGeometry x="400" y="463" width="60" height="30" as="geometry"/>
                </mxCell>
                <mxCell id="aPYfzz-ZaNKguBsQWeDp-100" style="edgeStyle=none;rounded=0;orthogonalLoop=1;jettySize=auto;html=1;entryX=0.5;entryY=0;entryDx=0;entryDy=0;entryPerimeter=0;" parent="1" target="aPYfzz-ZaNKguBsQWeDp-86" edge="1">
                    <mxGeometry relative="1" as="geometry">
                        <mxPoint x="1074.38" y="517.5" as="sourcePoint"/>
                    </mxGeometry>
                </mxCell>
                <mxCell id="aPYfzz-ZaNKguBsQWeDp-98" value="Input message transform" style="text;html=1;strokeColor=none;fillColor=none;align=center;verticalAlign=middle;whiteSpace=wrap;rounded=0;fontStyle=1" parent="1" vertex="1">
                    <mxGeometry x="1094.38" y="486" width="107.75" height="30" as="geometry"/>
                </mxCell>
                <mxCell id="aPYfzz-ZaNKguBsQWeDp-101" value="Client" style="text;html=1;strokeColor=none;fillColor=none;align=center;verticalAlign=middle;whiteSpace=wrap;rounded=0;" parent="1" vertex="1">
                    <mxGeometry x="-211" y="481" width="60" height="30" as="geometry"/>
                </mxCell>
                <mxCell id="aPYfzz-ZaNKguBsQWeDp-102" value="ALB" style="text;html=1;strokeColor=none;fillColor=none;align=center;verticalAlign=middle;whiteSpace=wrap;rounded=0;" parent="1" vertex="1">
                    <mxGeometry x="-73" y="463" width="60" height="30" as="geometry"/>
                </mxCell>
                <mxCell id="aPYfzz-ZaNKguBsQWeDp-103" value="TG" style="text;html=1;strokeColor=none;fillColor=none;align=center;verticalAlign=middle;whiteSpace=wrap;rounded=0;" parent="1" vertex="1">
                    <mxGeometry x="-1" y="462" width="60" height="30" as="geometry"/>
                </mxCell>
                <mxCell id="aPYfzz-ZaNKguBsQWeDp-106" style="edgeStyle=none;rounded=0;orthogonalLoop=1;jettySize=auto;html=1;entryX=0.342;entryY=0.008;entryDx=0;entryDy=0;entryPerimeter=0;dashed=1;" parent="1" source="aPYfzz-ZaNKguBsQWeDp-105" target="aPYfzz-ZaNKguBsQWeDp-56" edge="1">
                    <mxGeometry relative="1" as="geometry"/>
                </mxCell>
                <mxCell id="aPYfzz-ZaNKguBsQWeDp-105" value="&lt;h1&gt;Target Group&lt;/h1&gt;&lt;p&gt;Both deployed services uses the same target group to publish the Fargate instances available for the service independently to be SPOT or not&amp;nbsp;&lt;/p&gt;" style="text;html=1;strokeColor=none;fillColor=none;spacing=5;spacingTop=-20;whiteSpace=wrap;overflow=hidden;rounded=0;" parent="1" vertex="1">
                    <mxGeometry x="-230" y="150" width="190" height="120" as="geometry"/>
                </mxCell>
                <mxCell id="aPYfzz-ZaNKguBsQWeDp-108" style="edgeStyle=none;rounded=0;orthogonalLoop=1;jettySize=auto;html=1;entryX=0.25;entryY=1;entryDx=0;entryDy=0;dashed=1;" parent="1" source="aPYfzz-ZaNKguBsQWeDp-107" target="aPYfzz-ZaNKguBsQWeDp-40" edge="1">
                    <mxGeometry relative="1" as="geometry"/>
                </mxCell>
                <mxCell id="aPYfzz-ZaNKguBsQWeDp-107" value="&lt;h1&gt;ECS Cluster&lt;/h1&gt;&lt;p&gt;The strategy consists in to deploy two ECS Services that uses the same Task Definition, however, the capacity provider strategy for primary service is Fargate SPOT and for the other, the secondary, is Fargate (On Demand).&lt;/p&gt;" style="text;html=1;strokeColor=none;fillColor=none;spacing=5;spacingTop=-20;whiteSpace=wrap;overflow=hidden;rounded=0;" parent="1" vertex="1">
                    <mxGeometry x="-40" y="740" width="242.5" height="140" as="geometry"/>
                </mxCell>
                <mxCell id="aPYfzz-ZaNKguBsQWeDp-110" style="edgeStyle=none;rounded=0;orthogonalLoop=1;jettySize=auto;html=1;dashed=1;" parent="1" source="aPYfzz-ZaNKguBsQWeDp-109" target="aPYfzz-ZaNKguBsQWeDp-75" edge="1">
                    <mxGeometry relative="1" as="geometry"/>
                </mxCell>
                <mxCell id="aPYfzz-ZaNKguBsQWeDp-109" value="&lt;h1&gt;Event Rules&lt;/h1&gt;&lt;p&gt;The idea is to publish on rule for each ECS Service pair. All rules are handled by the same lambda, once we provide on the provision the source resource, and the ARN for primary, secondary and cluster.&lt;/p&gt;" style="text;html=1;strokeColor=none;fillColor=none;spacing=5;spacingTop=-20;whiteSpace=wrap;overflow=hidden;rounded=0;" parent="1" vertex="1">
                    <mxGeometry x="998.0000000000001" y="60" width="242.5" height="140" as="geometry"/>
                </mxCell>
                <mxCell id="aPYfzz-ZaNKguBsQWeDp-112" style="edgeStyle=none;rounded=0;orthogonalLoop=1;jettySize=auto;html=1;entryX=1;entryY=0.5;entryDx=0;entryDy=0;entryPerimeter=0;dashed=1;" parent="1" source="aPYfzz-ZaNKguBsQWeDp-111" target="aPYfzz-ZaNKguBsQWeDp-86" edge="1">
                    <mxGeometry relative="1" as="geometry"/>
                </mxCell>
                <mxCell id="aPYfzz-ZaNKguBsQWeDp-111" value="&lt;h1&gt;Event Handler&lt;/h1&gt;&lt;p&gt;One lambda for each account, responsible to handle events for &quot;Placement failure&quot; and &quot;Steady State&quot; for all services that uses Fargate Spot as the main capacity strategy.&lt;/p&gt;" style="text;html=1;strokeColor=none;fillColor=none;spacing=5;spacingTop=-20;whiteSpace=wrap;overflow=hidden;rounded=0;" parent="1" vertex="1">
                    <mxGeometry x="1250" y="594" width="242.5" height="140" as="geometry"/>
                </mxCell>
                <mxCell id="2" value="" style="aspect=fixed;html=1;points=[];align=center;image;fontSize=12;image=img/lib/azure2/general/Gear.svg;" vertex="1" parent="1">
                    <mxGeometry x="1058.88" y="481" width="31" height="31" as="geometry"/>
                </mxCell>
            </root>
        </mxGraphModel>
    </diagram>
</mxfile>